<svg width="24" height="22" viewBox="0 0 24 22" fill="none" xmlns="http://www.w3.org/2000/svg">
<path d="M16.7609 19.8749C17.4915 18.8721 18.5873 17.1072 19.0338 14.6202C19.3179 13.0157 19.2773 11.6519 19.1555 10.6491C19.115 11.7321 18.9526 13.2564 18.3438 14.9812C17.6944 16.7863 16.8421 18.1501 16.1521 19.0326C15.381 18.1501 14.204 16.5055 13.8793 14.2191C13.6764 12.5344 14.0011 11.1705 14.2852 9.92706C14.9751 7.15931 15.868 6.51751 15.9898 4.55201C16.071 2.98763 15.6651 1.70403 15.3404 0.941895C16.3551 1.30291 18.7497 2.2656 20.5761 4.75257C21.7937 6.39718 22.1995 8.04178 22.3213 8.68358C22.443 9.24515 22.7271 10.97 22.2401 13.0959C22.0778 13.8581 21.6719 15.5027 20.3325 17.1473C19.0744 18.7518 17.5727 19.5139 16.7609 19.8749Z" fill="#FF0000"/>
<path d="M16.3745 19.8384C16.7959 19.5706 17.5966 19.188 18.6922 19.035C19.2822 18.9584 19.83 18.9967 20.2093 19.035C19.7879 18.9967 19.2401 18.9967 18.5658 19.1115C17.5966 19.3028 16.9223 19.7236 16.5431 19.9531C17.133 20.5653 17.723 20.7566 18.018 20.8331C18.8608 21.0244 19.6193 20.7566 20.42 20.527C21.3049 20.2592 21.5578 20.0297 22.232 20.0297C22.7798 20.0297 23.2434 20.1444 23.5384 20.2592C23.4119 19.9149 23.117 19.341 22.4849 18.7672C21.8949 18.2698 21.3049 18.0785 21.0942 18.002C20.8835 17.9255 20.2514 17.7725 19.4508 17.849C18.6079 17.9255 18.018 18.2316 17.8494 18.3081C17.0066 18.8819 16.5852 19.5323 16.3745 19.8384Z" fill="#FF0000"/>
<path d="M11.128 22C4.98701 22 0 17.0704 0 11C0 4.92963 4.98701 0 11.128 0C12.3645 0 13.4361 0.122222 14.3428 0.57037C14.3428 0.57037 15.2083 2.03704 15.1259 3.78889C13.6834 2.89259 12.282 2.93333 11.128 2.93333C6.6356 2.93333 2.96747 6.55926 2.96747 11C2.96747 15.4407 6.6356 19.0667 11.128 19.0667C12.1996 19.0667 13.2712 18.863 14.3016 18.4148L16.0738 20.8185C14.5489 21.5926 12.8591 22 11.128 22Z" fill="#FF0000"/>
</svg>
