<!-- <svg xmlns="http://www.w3.org/2000/svg" x="0px" y="0px" width="30" height="30" viewBox="0 0 48 48">
<linearGradient id="Ld6sqrtcxMyckEl6xeDdMa_uLWV5A9vXIPu_gr1" x1="9.993" x2="40.615" y1="9.993" y2="40.615" gradientUnits="userSpaceOnUse"><stop offset="0" stop-color="#2aa4f4"></stop><stop offset="1" stop-color="#007ad9"></stop></linearGradient><path fill="url(#Ld6sqrtcxMyckEl6xeDdMa_uLWV5A9vXIPu_gr1)" d="M24,4C12.954,4,4,12.954,4,24s8.954,20,20,20s20-8.954,20-20S35.046,4,24,4z"></path><path fill="#fff" d="M26.707,29.301h5.176l0.813-5.258h-5.989v-2.874c0-2.184,0.714-4.121,2.757-4.121h3.283V12.46 c-0.577-0.078-1.797-0.248-4.102-0.248c-4.814,0-7.636,2.542-7.636,8.334v3.498H16.06v5.258h4.948v14.452 C21.988,43.9,22.981,44,24,44c0.921,0,1.82-0.084,2.707-0.204V29.301z"></path>
</svg> -->


<svg width="26" height="26" viewBox="0 0 24 24" fill="none" xmlns="http://www.w3.org/2000/svg">
<path d="M11.9999 1.43994C6.17349 1.43994 1.43994 6.17349 1.43994 11.9999C1.43994 17.2891 5.34116 21.6664 10.4221 22.4296L10.9734 22.5131V14.1918H8.47869V12.5024H10.9734V10.259C10.9734 8.87752 11.3049 7.96766 11.8537 7.39682C12.4025 6.82597 13.2134 6.53807 14.3418 6.53807C15.2441 6.53807 15.5952 6.59274 15.929 6.63369V8.0165H14.7543C14.0878 8.0165 13.541 8.38838 13.2571 8.88369C12.9733 9.37901 12.8849 9.97041 12.8849 10.5731V12.5015H15.824L15.5624 14.1909H12.8849V22.5262L13.4296 22.4521C18.5828 21.7532 22.5599 17.3408 22.5599 11.9999C22.5599 6.17349 17.8264 1.43994 11.9999 1.43994ZM11.9999 2.39994C17.3076 2.39994 21.5999 6.69231 21.5999 11.9999C21.5999 16.6702 18.2571 20.5112 13.8449 21.3759V15.1509H16.3856L16.9434 11.5415H13.8449V10.5731C13.8449 10.0751 13.9361 9.62888 14.0896 9.36088C14.2432 9.09288 14.3912 8.9765 14.7543 8.9765H16.889V5.76463L16.4728 5.70838C16.1849 5.66942 15.5276 5.57807 14.3418 5.57807C13.0443 5.57807 11.9306 5.93152 11.1618 6.73119C10.393 7.53087 10.0134 8.7216 10.0134 10.259V11.5424H7.51869V15.1518H10.0134V21.3459C5.6721 20.4263 2.39994 16.6197 2.39994 11.9999C2.39994 6.69231 6.69231 2.39994 11.9999 2.39994Z" fill="white"/>
</svg>
