<svg width="20" height="20" viewBox="0 0 20 20" fill="none" xmlns="http://www.w3.org/2000/svg">
<circle cx="10" cy="10" r="9.5" stroke="#F3F4F8"/>
<path d="M10.096 6.512C9.848 6.512 9.64 6.428 9.472 6.26C9.304 6.092 9.22 5.884 9.22 5.636C9.22 5.388 9.304 5.18 9.472 5.012C9.64 4.844 9.848 4.76 10.096 4.76C10.336 4.76 10.54 4.844 10.708 5.012C10.876 5.18 10.96 5.388 10.96 5.636C10.96 5.884 10.876 6.092 10.708 6.26C10.54 6.428 10.336 6.512 10.096 6.512ZM10.768 7.388V14H9.4V7.388H10.768Z" fill="white"/>
</svg>
