<svg width="8" height="18" viewBox="0 0 8 18" fill="none" xmlns="http://www.w3.org/2000/svg">
<path d="M2.42327 17.0769C3.0244 16.1724 3.9261 14.5805 4.29346 12.3373C4.52723 10.8902 4.49383 9.66004 4.39364 8.75554C4.36025 9.7324 4.22666 11.1072 3.72572 12.663C3.19138 14.2911 2.49007 15.5212 1.92233 16.3171C1.28781 15.5212 0.31932 14.0378 0.0521516 11.9756C-0.114829 10.456 0.15234 9.22588 0.386113 8.1043C0.953846 5.60789 1.68856 5.02901 1.78875 3.25619C1.85554 1.84518 1.52158 0.687418 1.25441 0C2.08931 0.325619 4.05968 1.19394 5.56251 3.43709C6.56439 4.92047 6.89835 6.40384 6.99854 6.98272C7.09873 7.48924 7.3325 9.04498 6.93175 10.9625C6.79816 11.6499 6.4642 13.1333 5.36213 14.6167C4.32685 16.0639 3.0912 16.7513 2.42327 17.0769Z" fill="#2EAD48"/>
<path d="M2.10547 17.0439C2.45222 16.8023 3.11103 16.4573 4.01257 16.3192C4.49802 16.2502 4.94879 16.2847 5.26086 16.3192C4.91412 16.2847 4.46335 16.2847 3.90855 16.3883C3.11103 16.5608 2.55624 16.9404 2.24417 17.1474C2.72961 17.6995 3.21506 17.8721 3.45778 17.9411C4.15127 18.1136 4.77542 17.8721 5.43424 17.665C6.1624 17.4235 6.37045 17.2164 6.92525 17.2164C7.37602 17.2164 7.75744 17.3199 8.00016 17.4235C7.89614 17.1129 7.65341 16.5953 7.13329 16.0777C6.64785 15.6291 6.1624 15.4566 5.98903 15.3876C5.81566 15.3185 5.29554 15.1805 4.63672 15.2495C3.94323 15.3185 3.45778 15.5946 3.31908 15.6636C2.62559 16.1812 2.27884 16.7678 2.10547 17.0439Z" fill="#2EAD48"/>
</svg>
