<!-- <svg xmlns="http://www.w3.org/2000/svg" x="0px" y="0px" width="30" height="30" viewBox="0 0 48 48">
<path fill="#0078d4" d="M42,37c0,2.762-2.238,5-5,5H11c-2.761,0-5-2.238-5-5V11c0-2.762,2.239-5,5-5h26c2.762,0,5,2.238,5,5	V37z"></path><path d="M30,37V26.901c0-1.689-0.819-2.698-2.192-2.698c-0.815,0-1.414,0.459-1.779,1.364	c-0.017,0.064-0.041,0.325-0.031,1.114L26,37h-7V18h7v1.061C27.022,18.356,28.275,18,29.738,18c4.547,0,7.261,3.093,7.261,8.274	L37,37H30z M11,37V18h3.457C12.454,18,11,16.528,11,14.499C11,12.472,12.478,11,14.514,11c2.012,0,3.445,1.431,3.486,3.479	C18,16.523,16.521,18,14.485,18H18v19H11z" opacity=".05"></path><path d="M30.5,36.5v-9.599c0-1.973-1.031-3.198-2.692-3.198c-1.295,0-1.935,0.912-2.243,1.677	c-0.082,0.199-0.071,0.989-0.067,1.326L25.5,36.5h-6v-18h6v1.638c0.795-0.823,2.075-1.638,4.238-1.638	c4.233,0,6.761,2.906,6.761,7.774L36.5,36.5H30.5z M11.5,36.5v-18h6v18H11.5z M14.457,17.5c-1.713,0-2.957-1.262-2.957-3.001	c0-1.738,1.268-2.999,3.014-2.999c1.724,0,2.951,1.229,2.986,2.989c0,1.749-1.268,3.011-3.015,3.011H14.457z" opacity=".07"></path><path fill="#fff" d="M12,19h5v17h-5V19z M14.485,17h-0.028C12.965,17,12,15.888,12,14.499C12,13.08,12.995,12,14.514,12	c1.521,0,2.458,1.08,2.486,2.499C17,15.887,16.035,17,14.485,17z M36,36h-5v-9.099c0-2.198-1.225-3.698-3.192-3.698	c-1.501,0-2.313,1.012-2.707,1.99C24.957,25.543,25,26.511,25,27v9h-5V19h5v2.616C25.721,20.5,26.85,19,29.738,19	c3.578,0,6.261,2.25,6.261,7.274L36,36L36,36z"></path>
</svg> -->


<svg width="26" height="26" viewBox="0 0 24 24" fill="none" xmlns="http://www.w3.org/2000/svg">
<path d="M3.83996 1.43994C3.02396 1.43994 2.30395 1.67994 1.82395 2.11194C1.34396 2.54394 1.00796 3.16794 1.00796 3.83994C1.00796 5.13594 2.20796 6.19194 3.74395 6.23994C3.79195 6.23994 3.83996 6.23994 3.88796 6.23994C4.75196 6.23994 5.42396 5.99994 5.95196 5.56794C6.47996 5.13594 6.76796 4.51194 6.76796 3.83994C6.76796 3.83994 6.76796 3.83994 6.76796 3.79194C6.62396 2.44794 5.47196 1.43994 3.83996 1.43994ZM3.83996 2.39994C5.08796 2.39994 5.71196 3.02394 5.75996 3.83994C5.75996 4.22394 5.61596 4.55994 5.27996 4.84794C4.94396 5.13594 4.46396 5.27994 3.83996 5.27994C2.59196 5.27994 1.91996 4.60794 1.91996 3.79194C1.91996 3.40794 2.06396 3.07194 2.39996 2.83194C2.73596 2.59194 3.21596 2.39994 3.83996 2.39994ZM1.43996 7.19994C1.15196 7.19994 0.959961 7.39194 0.959961 7.67994V21.5999C0.959961 21.8879 1.15196 22.0799 1.43996 22.0799H6.23996C6.52796 22.0799 6.71996 21.8879 6.71996 21.5999V17.1359V7.67994C6.71996 7.39194 6.52796 7.19994 6.23996 7.19994H1.43996ZM8.63996 7.19994C8.35196 7.19994 8.15996 7.39194 8.15996 7.67994V21.5999C8.15996 21.8879 8.35196 22.0799 8.63996 22.0799H13.44C13.728 22.0799 13.92 21.8879 13.92 21.5999V13.9199V13.7759V13.6319C13.92 12.7199 14.688 11.9519 15.6 11.9519C16.512 11.9519 17.28 12.7199 17.28 13.6319V21.5999C17.28 21.8879 17.472 22.0799 17.76 22.0799H22.56C22.848 22.0799 23.04 21.8879 23.04 21.5999V13.4399C23.04 11.4719 22.464 9.88794 21.456 8.83194C20.448 7.77594 19.104 7.19994 17.616 7.19994C15.744 7.19994 14.592 7.87194 13.872 8.44794V7.67994C13.872 7.39194 13.68 7.19994 13.392 7.19994H8.63996ZM1.91996 8.15994H5.75996V17.1359V21.1199H1.91996V8.15994ZM9.11996 8.15994H12.96V9.40794C12.96 9.69594 13.152 9.88794 13.44 9.88794C13.584 9.88794 13.728 9.83994 13.776 9.74394C13.776 9.74394 15.216 8.15994 17.616 8.15994C18.864 8.15994 19.92 8.59195 20.736 9.45595C21.552 10.3199 22.032 11.6159 22.032 13.4399V21.1199H18.192V13.6799C18.192 13.6319 18.192 13.5359 18.144 13.4879C18.048 12.1439 16.944 11.0399 15.552 11.0399C14.112 11.0399 12.912 12.2399 12.912 13.6799V13.8239V13.9679V21.1679H9.07196V8.15994H9.11996Z" fill="white"/>
</svg>
