<svg width="80" height="30" viewBox="0 0 80 30" fill="none" xmlns="http://www.w3.org/2000/svg">
<path d="M15 30C23.2843 30 30 23.2843 30 15C30 6.71573 23.2843 0 15 0C6.71573 0 0 6.71573 0 15C0 23.2843 6.71573 30 15 30Z" fill="white"/>
<path d="M15 9.26129C16.8691 9.26129 17.0905 9.2684 17.8286 9.30206C18.5111 9.33321 18.8817 9.44726 19.1284 9.5431C19.4551 9.67009 19.6883 9.82176 19.9333 10.0667C20.1783 10.3117 20.3299 10.5449 20.4569 10.8716C20.5527 11.1183 20.6668 11.4889 20.6979 12.1714C20.7316 12.9095 20.7387 13.1309 20.7387 15C20.7387 16.8691 20.7316 17.0905 20.6979 17.8286C20.6668 18.5111 20.5527 18.8817 20.4569 19.1284C20.3299 19.4551 20.1782 19.6884 19.9333 19.9333C19.6883 20.1782 19.4551 20.3299 19.1284 20.4569C18.8817 20.5528 18.5111 20.6668 17.8286 20.6979C17.0906 20.7316 16.8692 20.7388 15 20.7388C13.1308 20.7388 12.9094 20.7316 12.1714 20.6979C11.4889 20.6668 11.1183 20.5528 10.8716 20.4569C10.5449 20.3299 10.3117 20.1782 10.0668 19.9333C9.82181 19.6884 9.67008 19.4551 9.54309 19.1284C9.44725 18.8817 9.33321 18.5111 9.30206 17.8286C9.2684 17.0905 9.26128 16.8691 9.26128 15C9.26128 13.1309 9.2684 12.9095 9.30206 12.1714C9.33321 11.4889 9.44725 11.1183 9.54309 10.8716C9.67008 10.5449 9.82175 10.3117 10.0668 10.0668C10.3117 9.82176 10.5449 9.67009 10.8716 9.5431C11.1183 9.44726 11.4889 9.33321 12.1714 9.30206C12.9095 9.2684 13.1309 9.26129 15 9.26129ZM15 8C13.0989 8 12.8605 8.00805 12.1139 8.04212C11.3689 8.07613 10.86 8.19443 10.4147 8.3675C9.9544 8.54635 9.56403 8.78569 9.17489 9.1749C8.78569 9.56404 8.54635 9.95441 8.3675 10.4147C8.19443 10.86 8.07612 11.3688 8.04212 12.1139C8.00805 12.8605 8 13.0989 8 15C8 16.9011 8.00805 17.1395 8.04212 17.8861C8.07612 18.6312 8.19443 19.14 8.3675 19.5853C8.54635 20.0456 8.78569 20.436 9.17489 20.8252C9.56403 21.2143 9.9544 21.4536 10.4147 21.6325C10.86 21.8056 11.3689 21.9239 12.1139 21.9579C12.8605 21.992 13.0989 22 15 22C16.9011 22 17.1395 21.992 17.8861 21.9579C18.6311 21.9239 19.14 21.8056 19.5853 21.6325C20.0456 21.4536 20.436 21.2143 20.8251 20.8252C21.2142 20.436 21.4536 20.0456 21.6325 19.5853C21.8056 19.14 21.9239 18.6312 21.9579 17.8861C21.9919 17.1395 22 16.9011 22 15C22 13.0989 21.9919 12.8605 21.9579 12.1139C21.9239 11.3688 21.8056 10.86 21.6325 10.4147C21.4536 9.95441 21.2142 9.56404 20.8251 9.1749C20.436 8.78569 20.0456 8.54635 19.5853 8.3675C19.14 8.19443 18.6311 8.07613 17.8861 8.04212C17.1395 8.00805 16.9011 8 15 8Z" fill="black"/>
<path d="M15 11C12.7908 11 11 12.7908 11 15C11 17.2092 12.7908 19 15 19C17.2091 19 19 17.2092 19 15C19 12.7908 17.2091 11 15 11ZM15 17.5965C13.566 17.5965 12.4035 16.434 12.4035 15C12.4035 13.566 13.566 12.4035 15 12.4035C16.434 12.4035 17.5965 13.566 17.5965 15C17.5965 16.434 16.434 17.5965 15 17.5965Z" fill="black"/>
<path d="M20 11C20 11.5522 19.5523 12 19 12C18.4477 12 18 11.5522 18 11C18 10.4478 18.4477 10 19 10C19.5523 10 20 10.4478 20 11Z" fill="black"/>
<path d="M65 30C73.2843 30 80 23.2843 80 15C80 6.71573 73.2843 0 65 0C56.7157 0 50 6.71573 50 15C50 23.2843 56.7157 30 65 30Z" fill="white"/>
<path d="M71 9L60.2812 22H59L69.7191 9H71Z" fill="black"/>
<path fill-rule="evenodd" clip-rule="evenodd" d="M67.9477 21L60 10H63.0523L71 21H67.9477Z" fill="white"/>
<path d="M62.5322 10.0833L69.9474 20.9167H68.4678L61.0526 10.0833H62.5322ZM63.1015 9H59L67.8985 22H72L63.1015 9Z" fill="black"/>
</svg>
