<svg width="30" height="30" viewBox="0 0 30 30" fill="none" xmlns="http://www.w3.org/2000/svg">
<path d="M15 30C23.2843 30 30 23.2843 30 15C30 6.71573 23.2843 0 15 0C6.71573 0 0 6.71573 0 15C0 23.2843 6.71573 30 15 30Z" fill="white"/>
<path d="M21 9L10.2812 22H9L19.7191 9H21Z" fill="black"/>
<path fill-rule="evenodd" clip-rule="evenodd" d="M17.9477 21L10 10H13.0523L21 21H17.9477Z" fill="white"/>
<path d="M12.5322 10.0833L19.9474 20.9167H18.4678L11.0526 10.0833H12.5322ZM13.1015 9H9L17.8985 22H22L13.1015 9Z" fill="black"/>
</svg>
